<svg xmlns="http://www.w3.org/2000/svg" viewBox="0 0 512 512" width="512" height="512">
  <rect width="512" height="512" rx="96" fill="#10B981"/>
  <rect x="96" y="160" width="320" height="288" rx="24" fill="white"/>
  <rect x="96" y="160" width="320" height="80" rx="24" fill="#065F46"/>
  <rect x="96" y="200" width="320" height="40" fill="#065F46"/>
  <circle cx="176" cy="120" r="20" fill="white"/>
  <circle cx="256" cy="120" r="20" fill="white"/>
  <circle cx="336" cy="120" r="20" fill="white"/>
  <rect x="152" y="272" width="48" height="48" rx="8" fill="#10B981" opacity="0.2"/>
  <rect x="232" y="272" width="48" height="48" rx="8" fill="#10B981"/>
  <rect x="312" y="272" width="48" height="48" rx="8" fill="#10B981" opacity="0.2"/>
  <rect x="152" y="344" width="48" height="48" rx="8" fill="#10B981" opacity="0.2"/>
  <rect x="232" y="344" width="48" height="48" rx="8" fill="#10B981" opacity="0.2"/>
  <rect x="312" y="344" width="48" height="48" rx="8" fill="#10B981" opacity="0.2"/>
  <path d="M238 292 L250 304 L274 280" stroke="white" stroke-width="6" stroke-linecap="round" stroke-linejoin="round" fill="none"/>
</svg>